# xmcd
#
# Track frame offsets:
#	150
#	20042
#	49882
#	77822
#	119557
#	148505
#	189780
#	224748
#	276047
#
# Disc length: 4305 seconds
#
# Revision: 0
# Processed by: cddbd v1.4PL0 Copyright (c) Steve Scherf et al.
# Submitted via: dBpowerAMP V4.0
#
DISCID=8710cf09
DTITLE=Mick Martin and the Blues Rockers - Live at the Rainbow Orchards
DYEAR=1900
DGENRE=Blues
TTITLE0=I Don't Care
TTITLE1=Find That Girl
TTITLE2=Back Talking Baby
TTITLE3=Mama, Talk To Your Daughter
TTITLE4=Freeflow
TTITLE5=Voodoo Queen
TTITLE6=There's The Door
TTITLE7=Wade In The Water
TTITLE8=Boogie Medley
EXTD=
EXTT0=
EXTT1=
EXTT2=
EXTT3=
EXTT4=
EXTT5=
EXTT6=
EXTT7=
EXTT8=
PLAYORDER=
